<svg xmlns="http://www.w3.org/2000/svg" viewBox="0 0 300 160" fill="none"><defs><linearGradient id="bg" x1="0" y1="0" x2="1" y2="1"><stop stop-color="#e9e4d7"/><stop offset="1" stop-color="#fff" stop-opacity=".7"/></linearGradient><radialGradient id="glow"><stop stop-color="#fff" stop-opacity=".9"/><stop offset="1" stop-color="#fff" stop-opacity="0"/></radialGradient></defs><rect width="300" height="160" rx="18" fill="url(#bg)"/><circle cx="249" cy="30" r="63" fill="url(#glow)"/><circle cx="40" cy="126" r="57" fill="#fff" opacity=".18"/><path d="M0 143q63-20 117-4t109 2 74-6v25H0Z" fill="#fff" opacity=".4"/><g style="--accent:#9b795f;--leaf:#80a08b"><rect x="69" y="41" width="163" height="105" rx="7" fill="#fff" opacity=".9"/><path d="M84 71h132m-132 35h132" stroke="var(--leaf)" stroke-width="5"/><path d="M91 49h19v22H91m22 35h18v29h-18m19-64h24v22h-24m30 13h21v29h-21m24-64h17v22h-17" fill="var(--accent)"/><path d="M56 147h190" stroke="#8b654b" stroke-width="8" stroke-linecap="round"/></g><path d="M19 20h28" stroke="#fff" stroke-width="4" stroke-linecap="round" opacity=".8"/><circle cx="30" cy="42" r="3" fill="#fff" opacity=".75"/></svg>