<svg xmlns="http://www.w3.org/2000/svg" viewBox="0 0 300 160" fill="none"><defs><linearGradient id="bg" x1="0" y1="0" x2="1" y2="1"><stop stop-color="#e8f1d9"/><stop offset="1" stop-color="#fff" stop-opacity=".7"/></linearGradient><radialGradient id="glow"><stop stop-color="#fff" stop-opacity=".9"/><stop offset="1" stop-color="#fff" stop-opacity="0"/></radialGradient></defs><rect width="300" height="160" rx="18" fill="url(#bg)"/><circle cx="249" cy="30" r="63" fill="url(#glow)"/><circle cx="40" cy="126" r="57" fill="#fff" opacity=".18"/><path d="M0 143q63-20 117-4t109 2 74-6v25H0Z" fill="#fff" opacity=".4"/><g style="--accent:#f8d78a;--leaf:#5c936c"><path d="M0 137 Q74 112 145 138T300 132V160H0Z" fill="#ffffff" opacity=".46"/><path d="M48 119V66m-13 58V85m207 39V69" stroke="#8b654b" stroke-width="8" stroke-linecap="round"/><circle cx="48" cy="56" r="27" fill="var(--leaf)"/><circle cx="33" cy="72" r="17" fill="var(--leaf)"/><circle cx="63" cy="76" r="17" fill="var(--leaf)"/><circle cx="242" cy="58" r="30" fill="var(--leaf)"/><circle cx="222" cy="78" r="17" fill="var(--leaf)"/><circle cx="261" cy="79" r="18" fill="var(--leaf)"/><path d="M120 160Q137 123 150 101Q165 130 182 160" fill="#fff" opacity=".64"/></g><path d="M19 20h28" stroke="#fff" stroke-width="4" stroke-linecap="round" opacity=".8"/><circle cx="30" cy="42" r="3" fill="#fff" opacity=".75"/></svg>