<svg xmlns="http://www.w3.org/2000/svg" viewBox="0 0 300 160" fill="none"><defs><linearGradient id="bg" x1="0" y1="0" x2="1" y2="1"><stop stop-color="#f6e7cb"/><stop offset="1" stop-color="#fff" stop-opacity=".7"/></linearGradient><radialGradient id="glow"><stop stop-color="#fff" stop-opacity=".9"/><stop offset="1" stop-color="#fff" stop-opacity="0"/></radialGradient></defs><rect width="300" height="160" rx="18" fill="url(#bg)"/><circle cx="249" cy="30" r="63" fill="url(#glow)"/><circle cx="40" cy="126" r="57" fill="#fff" opacity=".18"/><path d="M0 143q63-20 117-4t109 2 74-6v25H0Z" fill="#fff" opacity=".4"/><g style="--accent:#ea9869;--leaf:#578b72"><path d="M75 85H226L215 147H87Z" fill="#fff" opacity=".9"/><path d="M65 84L84 45H218L239 84Z" fill="var(--accent)"/><path d="M96 45 84 84m42-39v39m42-39v39m42-39 12 39" stroke="#fff" stroke-width="12" opacity=".8"/><path d="M97 126q13-20 27 0m17 0q13-21 27 0m17 0q13-21 27 0" fill="var(--leaf)" stroke="var(--leaf)" stroke-width="10" stroke-linecap="round"/><circle cx="119" cy="113" r="7" fill="#df7e58"/><circle cx="162" cy="112" r="7" fill="#e8bd63"/><circle cx="203" cy="113" r="7" fill="#cf786b"/></g><path d="M19 20h28" stroke="#fff" stroke-width="4" stroke-linecap="round" opacity=".8"/><circle cx="30" cy="42" r="3" fill="#fff" opacity=".75"/></svg>