<svg xmlns="http://www.w3.org/2000/svg" viewBox="0 0 300 160" fill="none"><defs><linearGradient id="bg" x1="0" y1="0" x2="1" y2="1"><stop stop-color="#f6ebd6"/><stop offset="1" stop-color="#fff" stop-opacity=".7"/></linearGradient><radialGradient id="glow"><stop stop-color="#fff" stop-opacity=".9"/><stop offset="1" stop-color="#fff" stop-opacity="0"/></radialGradient></defs><rect width="300" height="160" rx="18" fill="url(#bg)"/><circle cx="249" cy="30" r="63" fill="url(#glow)"/><circle cx="40" cy="126" r="57" fill="#fff" opacity=".18"/><path d="M0 143q63-20 117-4t109 2 74-6v25H0Z" fill="#fff" opacity=".4"/><g style="--accent:#e6ae5c;--leaf:#728e75"><circle cx="150" cy="91" r="52" fill="#fff" opacity=".9"/><circle cx="150" cy="91" r="40" fill="var(--accent)"/><path d="M150 51v9m0 62v9m-40-40h9m62 0h9m-68-28 7 7m44 44 7 7m0-58-7 7m-44 44-7 7" stroke="#fff" stroke-width="4" stroke-linecap="round"/><path d="m150 91 18-20m-18 20-17-12" stroke="#fff" stroke-width="5" stroke-linecap="round"/><circle cx="150" cy="91" r="5" fill="#fff"/></g><path d="M19 20h28" stroke="#fff" stroke-width="4" stroke-linecap="round" opacity=".8"/><circle cx="30" cy="42" r="3" fill="#fff" opacity=".75"/></svg>